# xmcd
#
# Track frame offsets:
#	150
#	13287
#	26190
#	38157
#	50130
#	62307
#	76022
#	88707
#	102005
#	115577
#	129615
#	142142
#
# Disc length: 2190 seconds
#
# Revision: 2
# Processed by: cddbd v1.5.2PL0 Copyright (c) Steve Scherf et al.
# Submitted via: audiograbber 1.83.01
#
DISCID=9c088c0c
DTITLE=Five Blind Boys Of Mississippi - 20th Century Masters - The Best Of
DYEAR=2002
DGENRE=Gospel
TTITLE0=Our Father (Which Art In Heaven)
TTITLE1=Precious Memories
TTITLE2=Song Of Praise
TTITLE3=There's No Need To Cry
TTITLE4=Somewhere Listening For My Name
TTITLE5=Old Ship Of Zion
TTITLE6=Save A Seat For Me
TTITLE7=Lord, Lord You've Been Good To Me
TTITLE8=Oh Why
TTITLE9=Sending Up My Timber
TTITLE10=Speak Gently To Your Mother
TTITLE11=His Eye Is On The Sparrow
EXTD=
EXTT0=
EXTT1=
EXTT2=
EXTT3=
EXTT4=
EXTT5=
EXTT6=
EXTT7=
EXTT8=
EXTT9=
EXTT10=
EXTT11=
PLAYORDER=
